Coordinates
nRows=17
nColumns=24

# SIMM Motion File Header:
name Coordinates
datacolumns 24
datarows 17
otherdata 1
range 1.11500000000000000000 1.13100000000000000000

Units are S.I. units (second, meters, Newtons, ...)
Angles are in degrees.

endheader
time	pelvis_tx	pelvis_ty	pelvis_tz	pelvis_tilt	pelvis_list	pelvis_rotation	hip_flexion_r	hip_adduction_r	hip_rotation_r	knee_angle_r	ankle_angle_r	subtalar_angle_r	mtp_angle_r	hip_flexion_l	hip_adduction_l	hip_rotation_l	knee_angle_l	ankle_angle_l	subtalar_angle_l	mtp_angle_l	lumbar_extension	lumbar_bending	lumbar_rotation
      1.11500000000000000000	      1.18144766977499980000	      0.73846083273841390000	     -0.21089331920160884000	      1.20605218440287910000	      0.67823826802251952000	     -3.65835124635021010000	    -14.84202390617070900000	      1.30035654662547250000	      1.55036324152886280000	    -21.31446411526753700000	     -1.89110809159261460000	      0.00000000000005791563	     -0.00000000000031222062	     12.68162351618905400000	      2.82633631987983240000	     -5.41174635757350050000	      2.52780497346999320000	     -6.62635203238231530000	      0.00000000000000489961	     -0.00000000000001553333	     -5.17552318582400430000	     -4.14533038519957130000	      9.31375753096851610000
      1.11600000000000010000	      1.18205400913381080000	      0.73851510664531228000	     -0.21097875271490735000	      1.16923113120547750000	      0.67737765443725606000	     -3.65479859265807330000	    -14.80797839004945600000	      1.28025644460882050000	      1.51477047910434040000	    -21.34939588420573700000	     -2.07396515335926820000	      0.00000000000005796707	     -0.00000000000031335524	     12.66909345470271100000	      2.83415482734185220000	     -5.41515294828718560000	      2.53497762604650670000	     -6.64266029472080800000	      0.00000000000000486686	     -0.00000000000001586144	     -5.14935632478060160000	     -4.14471942094316770000	      9.33601254252640090000
      1.11700000000000000000	      1.18266018581589520000	      0.73856865260069193000	     -0.21106428457700185000	      1.13246837317444760000	      0.67658590313085953000	     -3.65122796479805030000	    -14.77363010435153300000	      1.26000508725916190000	      1.47940467534098090000	    -21.38472399363693200000	     -2.25736901695175090000	      0.00000000000005802708	     -0.00000000000031451709	     12.65641941991838200000	      2.84213127142811660000	     -5.41819048134752370000	      2.54245209696494360000	     -6.65929872893560580000	      0.00000000000000484449	     -0.00000000000001620609	     -5.12318599288286780000	     -4.14414094196124160000	      9.35812440546527210000
      1.11800000000000010000	      1.18326620302499320000	      0.73862148813561435000	     -0.21114992180489325000	      1.09577382361367910000	      0.67586887779040317000	     -3.64763765658576040000	    -14.73898249682023800000	      1.23959710844327000000	      1.44427162253766660000	    -21.42046288723787800000	     -2.44130343725615170000	      0.00000000000005809004	     -0.00000000000031569396	     12.64359560164822900000	      2.85027060420269770000	     -5.42084893332527070000	      2.55021295497906930000	     -6.67624795175157090000	      0.00000000000000482338	     -0.00000000000001655481	     -5.09701780930933700000	     -4.14360026061105650000	      9.38009642588697550000
      1.11900000000000000000	      1.18387206365134160000	      0.73867363109862649000	     -0.21123567127408815000	      1.05915738898945390000	      0.67523218690224285000	     -3.64402587169421420000	    -14.70403898491990800000	      1.21902746052275850000	      1.40937704303686620000	    -21.45662702035750500000	     -2.62575193198932500000	      0.00000000000005816058	     -0.00000000000031689560	     12.63061634169106500000	      2.85857743518143300000	     -5.42311873196471160000	      2.55824442918040250000	     -6.69348839974049170000	      0.00000000000000481393	     -0.00000000000001690053	     -5.07085757095143650000	     -4.14310241968937820000	      9.40193152060913210000
      1.12000000000000010000	      1.18447777025534310000	      0.73872509963476041000	     -0.21132153970802997000	      1.02262895566026010000	      0.67468117489375601000	     -3.64039072720791570000	    -14.66880294481611300000	      1.19829142492891850000	      1.37472658992858540000	    -21.49323084951971600000	     -2.81069783010203310000	      0.00000000000005822269	     -0.00000000000031807711	     12.61747614461786100000	      2.86705602595152880000	     -5.42499076319294370000	      2.56653042955057620000	     -6.71100035602212940000	      0.00000000000000481783	     -0.00000000000001725672	     -5.04471124324615780000	     -4.14265218511289830000	      9.42363224888528710000
      1.12100000000000000000	      1.18508332505169990000	      0.73877591216289207000	     -0.21140753366830203000	      0.98619837700891866000	      0.67422091451171362000	     -3.63673025705423170000	    -14.63327770059478000000	      1.17738462143376640000	      1.34032584646490880000	    -21.53028882284442600000	     -2.99612431309547840000	      0.00000000000005829331	     -0.00000000000031930032	     12.60416968764323000000	      2.87571028632740020000	     -5.42645637922115840000	      2.57505457009693340000	     -6.72876398970767920000	      0.00000000000000483675	     -0.00000000000001761963	     -5.01858495078812350000	     -4.14225404066881260000	      9.44520085371669540000
      1.12200000000000010000	      1.18568872989340930000	      0.73882608735323907000	     -0.21149365954487837000	      0.94987546065853445000	      0.67385619948523878000	     -3.63304241540847790000	    -14.59746651352577700000	      1.15630301712273530000	      1.30618032520217530000	    -21.56781537068346200000	     -3.18201445296344420000	      0.00000000000005837124	     -0.00000000000032054846	     12.59069183029990100000	      2.88454377085021550000	     -5.42750740698030310000	      2.58380019265427970000	     -6.74675939804764190000	      0.00000000000000485140	     -0.00000000000001799941	     -4.99248496802626640000	     -4.14191218309932460000	      9.46663930317726710000
      1.12300000000000000000	      1.18629398625568290000	      0.73887564410488527000	     -0.21157992354635546000	      0.91366995568955822000	      0.67359153719195697000	     -3.62932508009779700000	    -14.56137257132341700000	      1.13504293536888000000	      1.27229546714119300000	    -21.60582489625884500000	     -3.36835125010849620000	      0.00000000000005844249	     -0.00000000000032178581	     12.57703762411426300000	      2.89355967528189150000	     -5.42813615655945100000	      2.59275039069290210000	     -6.76496664859955740000	      0.00000000000000487520	     -0.00000000000001838972	     -4.96641770995936140000	     -4.14163051718474760000	      9.48794933174299790000
      1.12400000000000010000	      1.18689909521980020000	      0.73892460152332806000	     -0.21166633169016652000	      0.87759153985709759000	      0.67343114132514592000	     -3.62557605600409220000	    -14.52499897740342400000	      1.11360106481079900000	      1.23867664086719190000	    -21.64433176630054200000	     -3.55511767126011160000	      0.00000000000005851197	     -0.00000000000032302524	     12.56320232228450400000	      2.90276083309089470000	     -5.42833542964444680000	      2.60188803312767240000	     -6.78336582139555140000	      0.00000000000000490273	     -0.00000000000001878452	     -4.94038972282956750000	     -4.14141265082263740000	      9.50913248162575010000
      1.12500000000000000000	      1.18750405745688180000	      0.73897297889803126000	     -0.21175288979274573000	      0.84164980680870272000	      0.67337892458717374000	     -3.62179307847481000000	    -14.48834874014328900000	      1.09197446831485690000	      1.20532914173383830000	    -21.68335030168371300000	     -3.74229668673200910000	      0.00000000000005858155	     -0.00000000000032424974	     12.54918138936405500000	      2.91214971194825220000	     -5.42809852789940810000	      2.61119578811039820000	     -6.80193705109050750000	      0.00000000000000492862	     -0.00000000000001917992	     -4.91440767481879610000	     -4.14126189012027450000	      9.53019014386118360000
      1.12600000000000010000	      1.18810887321141380000	      0.73902079568003010000	     -0.21183960345966499000	      0.80585425353600904000	      0.67343849238147258000	     -3.61797381672133470000	    -14.45142476243758600000	      1.07016059098474200000	      1.17225819157769550000	    -21.72289476788791200000	     -3.92987129753931000000	      0.00000000000005864738	     -0.00000000000032546240	     12.53497051067664500000	      2.92172841153007790000	     -5.42741926169849620000	      2.62065614683635670000	     -6.82066057247104760000	      0.00000000000000495990	     -0.00000000000001960068	     -4.88847834713830840000	     -4.14118123526229630000	      9.55112359264081160000
      1.12700000000000000000	      1.18871354228428850000	      0.73906807145798148000	     -0.21192647807638668000	      0.77021426877744192000	      0.67361313855880334000	     -3.61411587726239380000	    -14.41422983187533200000	      1.04815726565924530000	      1.13946893840792400000	    -21.76297936643409900000	     -4.11782457038838780000	      0.00000000000005871103	     -0.00000000000032668181	     12.52056560064720600000	      2.93149866385205860000	     -5.42629195606942540000	      2.63025144633440000000	     -6.83951676297935760000	      0.00000000000000498759	     -0.00000000000002002318	     -4.86260862682387440000	     -4.14117337707380260000	      9.57193399131741530000
      1.12800000000000010000	      1.18931806401521230000	      0.73911482592877720000	     -0.21201351880025071000	      0.73473912204098557000	      0.67390584187792379000	     -3.61021680775932150000	    -14.37676661116546500000	      1.02596271719370690000	      1.10696645592792710000	    -21.80361822819681800000	     -4.30613969239203960000	      0.00000000000005876557	     -0.00000000000032788043	     12.50596281045433700000	      2.94146183373266370000	     -5.42471144985284410000	      2.63996389021309950000	     -6.85848617041310330000	      0.00000000000000501914	     -0.00000000000002043901	     -4.83680550091158960000	     -4.14124069274909880000	      9.59262237108620400000
      1.12900000000000000000	      1.18992243726469950000	      0.73916107886605065000	     -0.21210073055321108000	      0.69943795277109733000	      0.67431926313726687000	     -3.60627410093996440000	    -14.33903762878149600000	      1.00357556614263380000	      1.07475574359759610000	    -21.84482540674729400000	     -4.49480001833711820000	      0.00000000000005882944	     -0.00000000000032911244	     12.49115853549593200000	      2.95161891993491920000	     -5.42267309425294640000	      2.64977556917191630000	     -6.87754954106644250000	      0.00000000000000504600	     -0.00000000000002085202	     -4.81107605093114630000	     -4.14138524196374820000	      9.61318960327187360000
      1.12999999999999990000	      1.19052666039594100000	      0.73920685008887999000	     -0.21218811801494622000	      0.66431975962520751000	      0.67485574280613336000	     -3.60228519841549440000	    -14.30104526975669200000	      0.98099483200576998000	      1.04284172681438640000	    -21.88661487136367300000	     -4.68378911291741140000	      0.00000000000005889647	     -0.00000000000033036811	     12.47614942270011100000	      2.96197055713857480000	     -5.42017275279040960000	      2.65966848186943980000	     -6.89668785209954830000	      0.00000000000000506212	     -0.00000000000002127063	     -4.78542744751832320000	     -4.14160876352878930000	      9.63363637120410670000
      1.13100000000000000000	      1.19113073125664390000	      0.73925215943054567000	     -0.21227568561595386000	      0.62939338975194059000	      0.67551729865932808000	     -3.59824749449663140000	    -14.26279176647100600000	      0.95821993647394466000	      1.01122925709569310000	    -21.92900050003874000000	     -4.87309079292916620000	      0.00000000000005895626	     -0.00000000000033160661	     12.46093237784565100000	      2.97251701791881030000	     -5.41720680126503940000	      2.66962455579761350000	     -6.91588234393776080000	      0.00000000000000508048	     -0.00000000000002169933	     -4.75986694502230280000	     -4.14191267204808790000	      9.65396314208726740000
